<svg xmlns="http://www.w3.org/2000/svg" viewBox="0 0 64 64" width="64" height="64"><circle cx="32" cy="32" r="32" fill="#171412"/><g transform="translate(0,2.4)"><path d="M32.00,15.78 C31.81,15.78 31.62,15.79 31.44,15.81  C31.25,15.83 31.06,15.87 30.88,15.91  C30.70,15.96 30.51,16.02 30.33,16.08  C30.15,16.15 29.97,16.23 29.80,16.32  C29.62,16.41 29.45,16.52 29.28,16.63  C29.12,16.74 28.95,16.86 28.79,17.00  C28.63,17.13 28.48,17.27 28.33,17.43  C28.18,17.58 28.04,17.75 27.90,17.92  C27.76,18.09 27.63,18.28 27.51,18.47  C27.38,18.66 27.26,18.87 27.15,19.08  C27.04,19.29 26.94,19.51 26.84,19.74  C26.75,19.97 26.66,20.20 26.58,20.45  C26.50,20.69 26.43,20.94 26.37,21.20  C26.31,21.46 26.25,21.73 26.21,22.00  C26.17,22.27 26.14,22.55 26.11,22.83  C26.09,23.12 26.08,23.41 26.07,23.70  C26.07,24.00 26.08,24.30 26.09,24.60  C26.11,24.91 26.14,25.22 26.18,25.53  C26.22,25.84 26.27,26.16 26.33,26.47  C26.39,26.79 26.46,27.11 26.55,27.44  C26.63,27.76 26.73,28.09 26.83,28.41  C26.94,28.74 27.06,29.07 27.19,29.40  C27.32,29.72 27.46,30.05 27.61,30.38  C27.76,30.71 27.92,31.04 28.10,31.36  C28.27,31.69 28.46,32.02 28.66,32.34  C28.86,32.66 29.07,32.98 29.29,33.30  C29.51,33.62 29.74,33.94 29.98,34.25  C30.22,34.56 30.47,34.87 30.74,35.17  C31.00,35.48 31.28,35.78 31.56,36.07  C31.85,36.37 32.14,36.66 32.45,36.94  C32.75,37.23 33.07,37.51 33.39,37.78  C33.71,38.05 34.05,38.32 34.39,38.58  C34.73,38.83 35.09,39.09 35.45,39.33  C35.81,39.57 36.18,39.81 36.55,40.04  C36.93,40.27 37.31,40.49 37.71,40.70  C38.10,40.91 38.50,41.11 38.91,41.30  C39.31,41.50 39.73,41.68 40.14,41.86  C40.56,42.03 40.99,42.19 41.42,42.35  C41.85,42.50 42.29,42.65 42.73,42.78  C43.17,42.91 43.61,43.04 44.06,43.15  C44.51,43.26 44.97,43.36 45.42,43.45  C45.88,43.54 46.34,43.62 46.80,43.69  C47.26,43.76 47.73,43.82 48.19,43.86  C48.66,43.91 49.13,43.94 49.59,43.97  C50.06,43.99 50.77,43.99 51.00,44.00" fill="none" stroke="#fbfbfa" stroke-width="2.7" stroke-linecap="round" stroke-linejoin="round"/><line x1="13" y1="44" x2="51" y2="44" stroke="#e6332a" stroke-width="3.6" stroke-linecap="round"/><path d="M13.00,44.00  C13.23,43.99 13.94,43.99 14.41,43.97  C14.87,43.94 15.34,43.91 15.81,43.86  C16.27,43.82 16.74,43.76 17.20,43.69  C17.66,43.62 18.12,43.54 18.58,43.45  C19.03,43.36 19.49,43.26 19.94,43.15  C20.39,43.04 20.83,42.91 21.27,42.78  C21.71,42.65 22.15,42.50 22.58,42.35  C23.01,42.19 23.44,42.03 23.86,41.86  C24.27,41.68 24.69,41.50 25.09,41.30  C25.50,41.11 25.90,40.91 26.29,40.70  C26.69,40.49 27.07,40.27 27.45,40.04  C27.82,39.81 28.19,39.57 28.55,39.33  C28.91,39.09 29.27,38.83 29.61,38.58  C29.95,38.32 30.29,38.05 30.61,37.78  C30.93,37.51 31.25,37.23 31.55,36.94  C31.86,36.66 32.15,36.37 32.44,36.07  C32.72,35.78 33.00,35.48 33.26,35.17  C33.53,34.87 33.78,34.56 34.02,34.25  C34.26,33.94 34.49,33.62 34.71,33.30  C34.93,32.98 35.14,32.66 35.34,32.34  C35.54,32.02 35.73,31.69 35.90,31.36  C36.08,31.04 36.24,30.71 36.39,30.38  C36.54,30.05 36.68,29.72 36.81,29.40  C36.94,29.07 37.06,28.74 37.17,28.41  C37.27,28.09 37.37,27.76 37.45,27.44  C37.54,27.11 37.61,26.79 37.67,26.47  C37.73,26.16 37.78,25.84 37.82,25.53  C37.86,25.22 37.89,24.91 37.91,24.60  C37.92,24.30 37.93,24.00 37.93,23.70  C37.92,23.41 37.91,23.12 37.89,22.83  C37.86,22.55 37.83,22.27 37.79,22.00  C37.75,21.73 37.69,21.46 37.63,21.20  C37.57,20.94 37.50,20.69 37.42,20.45  C37.34,20.20 37.25,19.97 37.16,19.74  C37.06,19.51 36.96,19.29 36.85,19.08  C36.74,18.87 36.62,18.66 36.49,18.47  C36.37,18.28 36.24,18.09 36.10,17.92  C35.96,17.75 35.82,17.58 35.67,17.43  C35.52,17.27 35.37,17.13 35.21,17.00  C35.05,16.86 34.88,16.74 34.72,16.63  C34.55,16.52 34.38,16.41 34.20,16.32  C34.03,16.23 33.85,16.15 33.67,16.08  C33.49,16.02 33.30,15.96 33.12,15.91  C32.94,15.87 32.75,15.83 32.56,15.81  C32.38,15.79 32.19,15.78 32.00,15.78 " fill="none" stroke="#fbfbfa" stroke-width="2.7" stroke-linecap="round" stroke-linejoin="round"/><circle cx="13" cy="44" r="2.3" fill="#fbfbfa"/><circle cx="51" cy="44" r="2.3" fill="#fbfbfa"/></g></svg>