<?xml version="1.0" encoding="UTF-8"?>
<svg xmlns="http://www.w3.org/2000/svg" viewBox="0 0 64 64" role="img" aria-labelledby="title">
	<title>Black background messy field with brand line</title>
	
	<rect width="64" height="64" rx="12" fill="#171412"/>
	<path d="M-4 12 C8 2 14 26 25 14 C36 2 42 25 68 9" fill="none" stroke="#6f6a65" stroke-width="2.5" stroke-linecap="round" stroke-linejoin="round" opacity="0.55"/>
	<path d="M-2 24 C9 50 17 6 27 26 C38 49 48 8 66 28" fill="none" stroke="#8c8580" stroke-width="2.5" stroke-linecap="round" stroke-linejoin="round" opacity="0.5"/>
	<path d="M-6 42 C10 18 19 60 30 38 C43 12 50 51 70 34" fill="none" stroke="#6f6a65" stroke-width="2.5" stroke-linecap="round" stroke-linejoin="round" opacity="0.55"/>
	<path d="M-4 56 C15 35 26 68 39 48 C50 31 58 50 70 42" fill="none" stroke="#8c8580" stroke-width="2.5" stroke-linecap="round" stroke-linejoin="round" opacity="0.45"/>
	<path d="M10 34 L56 32" fill="none" stroke="#c2410c" stroke-width="5" stroke-linecap="round" stroke-linejoin="round" opacity="1"/>
	<circle cx="10" cy="34" r="4.5" fill="#fbfbfa" opacity="1"/>
	<circle cx="56" cy="32" r="4.5" fill="#c2410c" opacity="1"/>
	
</svg>
