<?xml version="1.0" encoding="UTF-8"?>
<svg xmlns="http://www.w3.org/2000/svg" viewBox="0 0 64 64" role="img" aria-labelledby="title">
	<title>Thin black messy field with dark orange line</title>
	
	<rect width="64" height="64" rx="12" fill="#fbfbfa"/>
	<path d="M-4 15 C7 7 16 28 28 14 C39 3 48 25 68 11" fill="none" stroke="#171412" stroke-width="1.5" stroke-linecap="round" stroke-linejoin="round" opacity="0.38"/>
	<path d="M-7 27 C7 48 17 7 29 27 C41 49 50 12 70 30" fill="none" stroke="#171412" stroke-width="1.5" stroke-linecap="round" stroke-linejoin="round" opacity="0.38"/>
	<path d="M-4 39 C9 18 19 55 31 38 C44 18 51 52 69 35" fill="none" stroke="#171412" stroke-width="1.5" stroke-linecap="round" stroke-linejoin="round" opacity="0.38"/>
	<path d="M-4 52 C15 34 26 66 39 47 C52 29 59 51 69 44" fill="none" stroke="#171412" stroke-width="1.5" stroke-linecap="round" stroke-linejoin="round" opacity="0.38"/>
	<path d="M10 34 L56 32" fill="none" stroke="#c2410c" stroke-width="3.25" stroke-linecap="round" stroke-linejoin="round" opacity="1"/>
	<circle cx="10" cy="34" r="3.5" fill="#171412" opacity="1"/>
	<circle cx="56" cy="32" r="3.5" fill="#c2410c" opacity="1"/>
	
</svg>
