<?xml version="1.0" encoding="UTF-8"?>
<svg xmlns="http://www.w3.org/2000/svg" viewBox="0 0 64 64" role="img" aria-labelledby="title">
	<title>Hairline random messy field with red line</title>
	
	<rect width="64" height="64" rx="12" fill="#fbfbfa"/>
	<path d="M-5 9 C5 18 12 3 20 16 C29 32 35 5 43 18 C51 31 58 7 69 20" fill="none" stroke="#171412" stroke-width="0.85" stroke-linecap="round" stroke-linejoin="round" opacity="0.46"/>
	<path d="M-7 22 C2 10 9 37 18 25 C27 13 31 39 41 23 C50 8 58 32 70 18" fill="none" stroke="#171412" stroke-width="0.97" stroke-linecap="round" stroke-linejoin="round" opacity="0.42000000000000004"/>
	<path d="M-4 34 C5 49 13 19 22 36 C29 50 36 17 45 35 C52 48 60 27 70 42" fill="none" stroke="#171412" stroke-width="1.0899999999999999" stroke-linecap="round" stroke-linejoin="round" opacity="0.38"/>
	<path d="M-6 48 C4 37 13 61 22 45 C32 27 37 56 48 41 C57 29 61 55 70 46" fill="none" stroke="#171412" stroke-width="0.85" stroke-linecap="round" stroke-linejoin="round" opacity="0.34"/>
	<path d="M4 -3 C16 12 8 27 23 35 C39 43 29 58 45 69" fill="none" stroke="#171412" stroke-width="0.97" stroke-linecap="round" stroke-linejoin="round" opacity="0.46"/>
	<path d="M62 -4 C47 10 59 26 43 34 C27 42 36 57 20 68" fill="none" stroke="#171412" stroke-width="1.0899999999999999" stroke-linecap="round" stroke-linejoin="round" opacity="0.42000000000000004"/>
	<path d="M10 34 L56 32" fill="none" stroke="#e6332a" stroke-width="3.25" stroke-linecap="round" stroke-linejoin="round" opacity="1"/>
	<circle cx="10" cy="34" r="3.4" fill="#171412" opacity="1"/>
	<circle cx="56" cy="32" r="3.4" fill="#e6332a" opacity="1"/>
	
</svg>
